<svg xmlns="http://www.w3.org/2000/svg" width="40" height="44" viewBox="0 0 40 44" fill="none">
  <g clip-path="url(#clip0_28_38)">
    <path fill-rule="evenodd" clip-rule="evenodd" d="M14.0792 16.8037L8.13769 23.2689C6.73655 24.7935 5.94939 26.8614 5.94939 29.0176C5.94939 31.1738 6.73655 33.2417 8.13769 34.7663C9.53886 36.2909 11.4392 37.1475 13.4208 37.1475C15.4023 37.1475 17.3027 36.2909 18.7038 34.7663L24.6453 28.3011L14.0792 16.8037ZM25.8723 1.23047C22.4021 1.23047 19.0739 2.73054 16.6201 5.40069L4.16848 18.9498C1.71462 21.6199 0.33606 25.2414 0.33606 29.0176C0.33606 32.7937 1.71462 36.4152 4.16848 39.0853C6.62234 41.7555 9.95049 43.2556 13.4208 43.2556C16.891 43.2556 20.2192 41.7555 22.673 39.0853L35.1245 25.5363C37.5784 22.8661 38.9571 19.2447 38.9571 15.4685C38.9571 11.6923 37.5784 8.07084 35.1245 5.40069C32.6707 2.73054 29.3425 1.23047 25.8723 1.23047Z" fill="white"/>
  </g>
  <defs>
    <clipPath id="clip0_28_38">
      <rect width="39.2933" height="42.7568" fill="white" transform="translate(0 0.864746)"/>
    </clipPath>
  </defs>
</svg>